<svg xmlns="http://www.w3.org/2000/svg" height="900pt" version="1.1" viewBox="0 -61 900.10002 900" width="900pt">
<g id="surface1">
<path d="M 778.101562 198.351562 C 778.101562 206.800781 771.25 213.648438 762.800781 213.648438 C 754.351562 213.648438 747.5 206.800781 747.5 198.351562 C 747.5 189.898438 754.351562 183.050781 762.800781 183.050781 C 771.25 183.050781 778.101562 189.898438 778.101562 198.351562 Z M 778.101562 198.351562 " style=" stroke:none;fill-rule:nonzero;fill:rgb(76.862745%,60.392157%,42.352941%);fill-opacity:1;" />
<path d="M 564.5 396.648438 L 15.300781 396.648438 C 6.898438 396.648438 0 389.851562 0 381.351562 L 0 289.851562 C 0.101562 129.851562 129.898438 0.0507812 289.898438 0.0507812 C 449.898438 0.0507812 579.800781 129.851562 579.800781 289.851562 L 579.800781 381.351562 C 579.800781 389.851562 572.898438 396.648438 564.5 396.648438 Z M 30.601562 366.148438 L 549.199219 366.148438 L 549.199219 289.851562 C 549.199219 146.648438 433.101562 30.550781 289.898438 30.550781 C 146.699219 30.550781 30.601562 146.648438 30.601562 289.851562 Z M 30.601562 366.148438 " style=" stroke:none;fill-rule:nonzero;fill:rgb(77.647059%,77.254902%,79.215686%);fill-opacity:1;" />
<path d="M 762.800781 228.851562 C 746 228.851562 732.300781 215.148438 732.300781 198.351562 C 732.300781 181.550781 746 167.851562 762.800781 167.851562 C 779.601562 167.851562 793.300781 181.550781 793.300781 198.351562 C 793.300781 215.148438 779.699219 228.851562 762.800781 228.851562 Z M 762.800781 198.351562 Z M 762.800781 198.351562 " style=" stroke:none;fill-rule:nonzero;fill:rgb(94.509804%,94.901961%,94.901961%);fill-opacity:1;" />
<path d="M 762.800781 594.949219 L 900.101562 594.949219 L 900.101562 778.050781 L 762.800781 778.050781 Z M 762.800781 594.949219 " style=" stroke:none;fill-rule:nonzero;fill:rgb(92.941176%,93.333333%,93.72549%);fill-opacity:1;" />
<path d="M 625.5 594.949219 L 762.800781 594.949219 L 762.800781 778.050781 L 625.5 778.050781 Z M 625.5 594.949219 " style=" stroke:none;fill-rule:nonzero;fill:rgb(90.196078%,90.588235%,90.980392%);fill-opacity:1;" />
<path d="M 289.898438 259.351562 L 518.699219 259.351562 L 518.699219 320.351562 L 289.898438 320.351562 Z M 289.898438 259.351562 " style=" stroke:none;fill-rule:nonzero;fill:rgb(80.784314%,80.392157%,82.352941%);fill-opacity:1;" />
<path d="M 61.101562 259.351562 L 289.898438 259.351562 L 289.898438 320.351562 L 61.101562 320.351562 Z M 61.101562 259.351562 " style=" stroke:none;fill-rule:nonzero;fill:rgb(77.647059%,77.254902%,79.215686%);fill-opacity:1;" />
<path d="M 335.699219 594.949219 C 335.699219 620.25 315.199219 640.75 289.898438 640.75 L 289.898438 701.75 L 457.699219 701.75 L 457.699219 457.648438 L 289.898438 457.648438 L 289.898438 518.648438 C 289.898438 518.75 335.699219 569.75 335.699219 594.949219 Z M 335.699219 594.949219 " style=" stroke:none;fill-rule:nonzero;fill:rgb(100%,89.803922%,76.078431%);fill-opacity:1;" />
<path d="M 122.101562 701.75 L 289.898438 701.75 L 289.898438 640.75 C 264.601562 640.75 244.101562 620.25 244.101562 594.949219 C 244.101562 569.648438 289.898438 518.648438 289.898438 518.648438 L 289.898438 457.648438 L 122.101562 457.648438 Z M 122.101562 701.75 " style=" stroke:none;fill-rule:nonzero;fill:rgb(100%,85.490196%,66.666667%);fill-opacity:1;" />
<path d="M 762.800781 213.648438 C 754.398438 213.648438 747.5 206.851562 747.5 198.351562 C 747.5 189.851562 754.300781 183.050781 762.800781 183.050781 L 762.800781 137.351562 L 752.898438 137.351562 C 719.199219 137.351562 691.898438 164.648438 691.800781 198.351562 C 691.800781 200.050781 691.898438 201.75 692 203.449219 L 714.601562 474.949219 C 715.699219 489.75 706.101562 503.148438 691.699219 506.949219 C 652.5 518.351562 625.5 554.148438 625.398438 594.949219 L 762.699219 594.949219 L 762.699219 213.648438 Z M 762.800781 213.648438 " style=" stroke:none;fill-rule:nonzero;fill:rgb(54.509804%,36.862745%,23.529412%);fill-opacity:1;" />
<path d="M 778.101562 198.351562 C 778.101562 206.75 771.300781 213.648438 762.800781 213.648438 L 762.800781 595.050781 L 900.101562 595.050781 C 900.101562 554.25 873 518.351562 833.800781 507.050781 C 819.5 503.25 809.898438 489.851562 810.898438 475.050781 L 833.5 203.550781 C 836.300781 169.949219 811.300781 140.449219 777.699219 137.648438 C 776 137.550781 774.300781 137.449219 772.699219 137.449219 L 762.800781 137.449219 L 762.800781 183.25 C 771.199219 183.148438 778.101562 189.949219 778.101562 198.351562 Z M 778.101562 198.351562 " style=" stroke:none;fill-rule:nonzero;fill:rgb(61.176471%,45.882353%,34.509804%);fill-opacity:1;" />
<path d="M 701.800781 701.75 L 701.800781 778.050781 L 671.300781 778.050781 L 671.300781 701.75 C 671.300781 693.351562 678.101562 686.449219 686.601562 686.449219 C 695.101562 686.449219 701.800781 693.351562 701.800781 701.75 Z M 701.800781 701.75 " style=" stroke:none;fill-rule:nonzero;fill:rgb(77.647059%,77.254902%,79.215686%);fill-opacity:1;" />
<path d="M 854.300781 701.75 L 854.300781 778.050781 L 823.800781 778.050781 L 823.800781 701.75 C 823.800781 693.351562 830.601562 686.449219 839.101562 686.449219 C 847.601562 686.449219 854.300781 693.351562 854.300781 701.75 Z M 854.300781 701.75 " style=" stroke:none;fill-rule:nonzero;fill:rgb(77.647059%,77.254902%,79.215686%);fill-opacity:1;" />
<path d="M 762.800781 655.949219 L 762.800781 777.949219 L 732.300781 777.949219 L 732.300781 655.949219 C 732.300781 647.550781 739.101562 640.648438 747.601562 640.648438 C 756.101562 640.648438 762.800781 647.550781 762.800781 655.949219 Z M 762.800781 655.949219 " style=" stroke:none;fill-rule:nonzero;fill:rgb(77.647059%,77.254902%,79.215686%);fill-opacity:1;" />
<path d="M 335.699219 594.949219 C 335.699219 569.648438 289.898438 518.648438 289.898438 518.648438 L 289.898438 640.648438 C 315.199219 640.75 335.699219 620.25 335.699219 594.949219 Z M 335.699219 594.949219 " style=" stroke:none;fill-rule:nonzero;fill:rgb(45.882353%,29.803922%,16.078431%);fill-opacity:1;" />
<path d="M 244.199219 594.949219 C 244.199219 620.25 264.699219 640.75 290 640.75 L 290 518.75 C 289.898438 518.75 244.199219 569.75 244.199219 594.949219 Z M 244.199219 594.949219 " style=" stroke:none;fill-rule:nonzero;fill:rgb(45.882353%,29.803922%,16.078431%);fill-opacity:1;" />
<path d="M 289.898438 457.648438 L 457.699219 457.648438 L 457.699219 701.75 L 289.898438 701.75 L 289.898438 778.050781 L 518.699219 778.050781 L 518.699219 381.449219 L 289.898438 381.449219 Z M 289.898438 457.648438 " style=" stroke:none;fill-rule:nonzero;fill:rgb(92.941176%,93.333333%,93.72549%);fill-opacity:1;" />
<path d="M 122.101562 701.75 L 122.101562 457.648438 L 289.898438 457.648438 L 289.898438 381.449219 L 61.101562 381.449219 L 61.101562 778.050781 L 289.898438 778.050781 L 289.898438 701.75 Z M 122.101562 701.75 " style=" stroke:none;fill-rule:nonzero;fill:rgb(90.196078%,90.588235%,90.980392%);fill-opacity:1;" />
<path d="M 61.101562 320.449219 L 289.898438 320.449219 L 289.898438 381.449219 L 61.101562 381.449219 Z M 61.101562 320.449219 " style=" stroke:none;fill-rule:nonzero;fill:rgb(76.862745%,60.392157%,42.352941%);fill-opacity:1;" />
<path d="M 289.898438 320.449219 L 518.699219 320.449219 L 518.699219 381.449219 L 289.898438 381.449219 Z M 289.898438 320.449219 " style=" stroke:none;fill-rule:nonzero;fill:rgb(83.529412%,71.764706%,58.823529%);fill-opacity:1;" />
</g>
</svg>